<svg xmlns="http://www.w3.org/2000/svg" width="14" height="10" viewBox="0 0 14 10"><g><g><g><path fill="#222136" d="M2.483 7.766H.838S0 7.764 0 9.04c.04.824.683.956.798.956h3.35s.84 0 .876-1.006c.002-.039.005-.001.005-.04.002-.149 0-.917 0-.917.002-.11.086-.234.198-.234h2.624c.038 0 .072.032.075.07l.62 1.401c.231.574.68.994 1.431.724.711-.256.748-.82.623-1.215L9.059 4.11c-.232-.554-.816-.877-1.547-.877H3.899c-1.956 0-3.596 2.279-1.375 4.47.016.034-.002.063-.04.063z"/></g><g><path fill="#222136" d="M9.145 2.348a2.427 2.427 0 1 1 4.855 0 2.427 2.427 0 0 1-4.855 0z"/></g></g></g></svg>