<svg xmlns="http://www.w3.org/2000/svg" width="14" height="14" viewBox="0 0 14 14"><g><g clip-path="url(#clip-48699798-4bd6-4261-ad8a-f823996d62fa)"><g><g><g><path fill="#ff0a0a" d="M12.906 4.047H1.094V2.734c0-.301.245-.546.547-.546h.656V3.28H3.39V2.188h7.218V3.28h1.094V2.188h.656c.302 0 .547.245.547.546zm0 8.312a.547.547 0 0 1-.547.547H1.641a.547.547 0 0 1-.547-.547V5.141h11.812zM12.36 1.094h-.656V0H10.61v1.094H3.391V0H2.297v1.094H1.64C.736 1.094 0 1.83 0 2.734v9.625C0 13.264.736 14 1.64 14h10.72c.904 0 1.64-.736 1.64-1.64V2.733c0-.904-.736-1.64-1.64-1.64z"/></g></g></g><g><g><g><path fill="#ff0a0a" d="M2.078 7.383V6.289h1.094v1.094z"/></g></g></g><g><g><g><path fill="#ff0a0a" d="M4.266 7.383V6.289h1.093v1.094z"/></g></g></g><g><g><g><path fill="#ff0a0a" d="M6.453 7.383V6.289h1.094v1.094z"/></g></g></g><g><g><g><path fill="#ff0a0a" d="M8.64 7.383V6.289h1.094v1.094z"/></g></g></g><g><g><g><path fill="#ff0a0a" d="M10.828 7.383V6.289h1.094v1.094z"/></g></g></g><g><g><g><path fill="#ff0a0a" d="M2.078 9.57V8.477h1.094V9.57z"/></g></g></g><g><g><g><path fill="#ff0a0a" d="M4.266 9.57V8.477h1.093V9.57z"/></g></g></g><g><g><g><path fill="#ff0a0a" d="M6.453 9.57V8.477h1.094V9.57z"/></g></g></g><g><g><g><path fill="#ff0a0a" d="M8.64 9.57V8.477h1.094V9.57z"/></g></g></g><g><g><g><path fill="#ff0a0a" d="M2.078 11.758v-1.094h1.094v1.094z"/></g></g></g><g><g><g><path fill="#ff0a0a" d="M4.266 11.758v-1.094h1.093v1.094z"/></g></g></g><g><g><g><path fill="#ff0a0a" d="M6.453 11.758v-1.094h1.094v1.094z"/></g></g></g><g><g><g><path fill="#ff0a0a" d="M8.64 11.758v-1.094h1.094v1.094z"/></g></g></g><g><g><g><path fill="#ff0a0a" d="M10.828 9.57V8.477h1.094V9.57z"/></g></g></g></g></g></svg>