<svg xmlns="http://www.w3.org/2000/svg" width="10" height="14" viewBox="0 0 10 14"><g><g clip-path="url(#clip-69a520c3-6e98-42d6-aaf3-6fe25ec2916d)"><g><path fill="#fff" d="M2.085 5.329h1.166v6.779H2.085zm2.332 0h1.166v6.779H4.417zm2.332 0h1.166v6.779H6.75zm-6.006 8.36c0 .172.139.311.31.311h7.893a.31.31 0 0 0 .311-.31V3.613H.743z"/></g><g><path fill="#fff" d="M6.455 1.754h-2.91v-.588h2.91zM7.62.31A.31.31 0 0 0 7.31 0H2.69a.31.31 0 0 0-.31.31v1.508H.205a.31.31 0 0 0-.311.31v.787c0 .172.139.31.31.31h9.59a.31.31 0 0 0 .31-.31v-.786a.31.31 0 0 0-.31-.311H7.62z"/></g></g></g></svg>