<svg xmlns="http://www.w3.org/2000/svg" width="16" height="16" viewBox="0 0 16 16"><g><g clip-path="url(#clip-9f66e107-b02e-4d4c-b990-c3039f40021d)" opacity=".4"><path fill="#222136" d="M1.8 9.861l1.184-1.183 5.324-5.325a2.51 2.51 0 0 1 3.55 3.55l-5.324 5.326a.558.558 0 1 1-.79-.789l5.325-5.326a1.394 1.394 0 1 0-1.972-1.972L3.771 9.467 2.588 10.65a2.51 2.51 0 1 0 3.551 3.55l.986-.986 5.522-5.522.395-.395A3.626 3.626 0 0 0 7.914 2.17L1.998 8.086a.558.558 0 0 1-.79-.789l5.917-5.916a4.741 4.741 0 0 1 6.705 6.705l-5.916 5.917-.987.986A3.626 3.626 0 0 1 1.8 9.861z"/></g></g></svg>