<svg xmlns="http://www.w3.org/2000/svg" width="12" height="12" viewBox="0 0 12 12"><g><g clip-path="url(#clip-b4b02beb-18ac-48db-83c5-4ed710110670)"><g><g><path d="M1.333 4.667l1-3h7.334l1 3zM9.667 8c-.534 0-1-.467-1-1 0-.533.466-1 1-1 .533 0 1 .467 1 1 0 .533-.467 1-1 1zM2.333 8c-.533 0-1-.467-1-1 0-.533.467-1 1-1 .534 0 1 .467 1 1 0 .533-.466 1-1 1zM10.6 1.333a1.003 1.003 0 0 0-.933-.666H2.333c-.466 0-.8.266-.933.666l-1.4 4v5.334c0 .4.267.666.667.666h.666c.4 0 .667-.266.667-.666V10h8v.667c0 .4.267.666.667.666h.666c.4 0 .667-.266.667-.666V5.333z"/></g></g></g></g></svg>