<svg xmlns="http://www.w3.org/2000/svg" width="15" height="15" viewBox="0 0 15 15"><g><g><path fill="#fff" d="M12.806 11.288a7.907 7.907 0 0 0-1.572-.742c.19-.8.303-1.667.334-2.56h2.435a6.495 6.495 0 0 1-1.197 3.302zm-2.868 2.26c.453-.616.788-1.345 1.029-2.06.436.156.84.343 1.204.559a6.545 6.545 0 0 1-2.233 1.501zm-1.949.383v-2.997c.713.03 1.4.124 2.04.276-.349 1.022-1.03 2.35-2.04 2.721zm0-5.945h2.6a12.155 12.155 0 0 1-.294 2.284 11.736 11.736 0 0 0-2.306-.315zm0-2.941c.803-.032 1.58-.138 2.306-.315.165.713.265 1.482.294 2.28h-2.6zm0-3.976C9 1.439 9.68 2.767 10.03 3.79a10.77 10.77 0 0 1-2.04.276zm4.182 1.885zm-1.204.559c-.24-.716-.576-1.445-1.029-2.061a6.544 6.544 0 0 1 2.233 1.502 6.977 6.977 0 0 1-1.204.559zm1.839.199a6.483 6.483 0 0 1 1.197 3.299h-2.435a13.095 13.095 0 0 0-.334-2.557 7.908 7.908 0 0 0 1.572-.742zm-5.795.354a10.77 10.77 0 0 1-2.04-.276c.349-1.022 1.03-2.35 2.04-2.721zm0 2.945h-2.6a12.12 12.12 0 0 1 .294-2.28c.726.176 1.503.282 2.306.314zm0 2.944c-.803.032-1.58.138-2.306.315a12.126 12.126 0 0 1-.294-2.28h2.6v1.965zm0 3.976C6 13.561 5.32 12.233 4.97 11.21a10.77 10.77 0 0 1 2.04-.276zm-4.182-1.885a6.976 6.976 0 0 1 1.204-.559c.24.716.576 1.445 1.029 2.061a6.544 6.544 0 0 1-2.233-1.502zm-.635-.758A6.483 6.483 0 0 1 .997 7.989h2.435c.03.893.144 1.756.334 2.557a7.909 7.909 0 0 0-1.572.742zm0-7.576c.468.292.997.54 1.572.742-.19.8-.303 1.664-.334 2.557H.997a6.484 6.484 0 0 1 1.197-3.299zm2.868-2.26c-.453.616-.788 1.345-1.029 2.06a6.976 6.976 0 0 1-1.204-.559 6.545 6.545 0 0 1 2.233-1.501zM7.5 0C3.365 0 0 3.365 0 7.5S3.365 15 7.5 15 15 11.635 15 7.5 11.635 0 7.5 0z"/></g></g></svg>