<svg xmlns="http://www.w3.org/2000/svg" width="12" height="12" viewBox="0 0 12 12"><g><g><path d="M6.842 10.402L6.3 9.181h.002c.693-.084 1.308-.455 1.791-.98l.002-.002.09.359zM5.244 11.6l.12-.6h1.272l.051.253.069.345zM3.817 8.558l.09-.359.001.001c.483.526 1.098.897 1.792.98v.001l-.542 1.221zM3.2 5.4v-.8h5.6v.8c0 .9-.319 1.693-.79 2.288-.007.006-.016.01-.022.018-.069.088-.14.171-.213.25h-.001c-.049.052-.1.098-.15.145-.489.44-1.07.699-1.624.699s-1.135-.258-1.624-.7c-.05-.046-.1-.092-.15-.143v-.002a3.644 3.644 0 0 1-.214-.249c-.006-.007-.015-.012-.022-.018A3.676 3.676 0 0 1 3.2 5.4zm8.206 4.56c-1.2-.631-2.118-.982-2.933-1.12l.089-.122a.2.2 0 0 0 .032-.166l-.186-.743c.498-.702.792-1.578.792-2.409v-.8h.6a.2.2 0 1 0 0-.4h-.2V4c0-.557-.131-1.082-.366-1.549l-1.796.345a.2.2 0 0 1-.18-.054.2.2 0 0 1-.054-.18L7.532.84A3.873 3.873 0 0 0 7 .646V.603A.604.604 0 0 0 6.397 0h-.794A.604.604 0 0 0 5 .603v.043a3.885 3.885 0 0 0-.531.194l.328 1.722a.2.2 0 0 1-.235.234l-1.795-.345A3.428 3.428 0 0 0 2.4 4v.2h-.2a.2.2 0 1 0 0 .4h.6v.8c0 .831.294 1.707.792 2.409l-.186.743a.2.2 0 0 0 .032.166l.09.122c-.816.138-1.734.489-2.934 1.12a1.11 1.11 0 0 0-.594.985v.855c0 .11.09.2.2.2h4.875l1.841-.002.01.002H11.8a.2.2 0 0 0 .2-.2v-.855a1.11 1.11 0 0 0-.594-.985z"/></g></g></svg>