<svg xmlns="http://www.w3.org/2000/svg" width="15" height="15" viewBox="0 0 15 15"><g><g clip-path="url(#clip-92c98f84-5560-49d3-b85a-ddb803d60b6f)"><g><path fill="#fff" d="M13.67 10.86a2.812 2.812 0 0 1-2.81 2.81H4.14a2.812 2.812 0 0 1-2.81-2.81V4.14a2.812 2.812 0 0 1 2.81-2.81h6.72a2.812 2.812 0 0 1 2.81 2.81v6.72zM10.86 0H4.14A4.144 4.144 0 0 0 0 4.14v6.72A4.144 4.144 0 0 0 4.14 15h6.72A4.144 4.144 0 0 0 15 10.86V4.14A4.144 4.144 0 0 0 10.86 0z"/></g><g><path fill="#fff" d="M7.5 10.034A2.537 2.537 0 0 1 4.966 7.5 2.537 2.537 0 0 1 7.5 4.966 2.537 2.537 0 0 1 10.034 7.5 2.537 2.537 0 0 1 7.5 10.034zm0-6.399A3.87 3.87 0 0 0 3.635 7.5 3.87 3.87 0 0 0 7.5 11.365 3.87 3.87 0 0 0 11.365 7.5 3.87 3.87 0 0 0 7.5 3.635z"/></g><g><path fill="#fff" d="M11.527 2.507a.98.98 0 0 0-.976.976c0 .256.105.508.287.69a.983.983 0 0 0 .69.286.986.986 0 0 0 .69-.286.98.98 0 0 0 0-1.38.98.98 0 0 0-.69-.286z"/></g></g></g></svg>