<svg xmlns="http://www.w3.org/2000/svg" width="12" height="12" viewBox="0 0 12 12"><g><g clip-path="url(#clip-a040538d-a6d2-4680-971e-057cd608bf3d)"><g><g><path fill="#222136" d="M7.572 10.388H1.407V1.612h6.165c.136 0 .247-.11.247-.247V.453a.248.248 0 0 0-.247-.247H.248A.248.248 0 0 0 0 .453v11.094c0 .137.11.247.248.247h7.324c.136 0 .247-.11.247-.247v-.912a.247.247 0 0 0-.247-.247z"/></g><g><path fill="#222136" d="M11.927 5.825L8.595 2.493a.255.255 0 0 0-.35 0l-.791.79a.248.248 0 0 0 0 .35L8.959 5.14H2.443a.248.248 0 0 0-.247.248v1.227c0 .136.11.247.247.247H8.96L7.454 8.367a.248.248 0 0 0 0 .35l.79.79a.248.248 0 0 0 .351 0l3.332-3.332a.248.248 0 0 0 0-.35z"/></g></g></g></g></svg>