<svg xmlns="http://www.w3.org/2000/svg" width="161" height="52" viewBox="0 0 161 52"><g><g><path fill="#fff" d="M108.054 27.964a5.28 5.28 0 0 0-.326-1.934 4.448 4.448 0 0 0-1-1.57c-.932-.944-2.266-1.443-3.856-1.443-3.235 0-5.295 1.71-5.957 4.947h11.139zm-54.683 8.85c1.102 0 2.058-.217 2.843-.647a4.31 4.31 0 0 0 1.531-1.406V32.44c-1.019-.747-2.317-1.11-3.97-1.11-.995 0-1.896.246-2.537.693-.718.502-1.098 1.239-1.098 2.133 0 .817.323 1.499.934 1.973.579.448 1.373.685 2.297.685zM16.759 11.475c0 2.36-1.717 3.634-3.332 3.634-1.75 0-3.634-1.137-3.634-3.634 0-1.95 1.528-3.365 3.634-3.365 1.602 0 3.332 1.286 3.332 3.365zm-.573 7.269V41.39h-5.788V18.744zM49.4 5.216v5.788H37.958v30.387h-6.191V11.004H20.325V5.216zm24.363 0V41.39h-5.788V5.216zm15.513 13.528l-8.513 10.364 9.523 12.283h-7.437l-8.985-11.812 8.11-10.835zm-31.53 10.162c.084-2.366-.285-3.891-1.16-4.799-.686-.71-1.694-1.056-3.08-1.056-2.462 0-4.08.717-5.643 1.41l-.314.138-1.413-4.24c1.694-.993 4.808-2.154 8.009-2.154 3.263 0 5.565.807 7.037 2.465 1.356 1.528 2.015 3.804 2.015 6.958v13.797h-5.048V38.8c-1.294 1.833-3.797 2.927-6.696 2.927-4.314 0-7.1-2.72-7.1-6.932 0-4.525 3.158-7.336 8.244-7.336 1.89 0 3.958.582 5.148 1.447zm45.361-10.7c6.22 0 10.735 4.429 10.735 10.532 0 1.371-.091 2.22-.337 3.13H97.151c.123.84.383 1.604.773 2.273a5.55 5.55 0 0 0 1.477 1.655c1.183.887 2.756 1.355 4.547 1.355 1.282 0 2.54-.214 3.74-.635 1.289-.453 2.155-1.02 2.654-1.418l1.616 4.038c-2.112 1.797-5.265 2.827-8.649 2.827-7.286 0-12.182-4.774-12.182-11.879 0-6.994 4.927-11.879 11.98-11.879zm20.999 33.55V0H0v51.756z"/></g><g><path fill="#fff" d="M160.449 51.755H129.22v-41.39h20.864L160.45 31.06z"/></g></g></svg>