<svg xmlns="http://www.w3.org/2000/svg" width="39" height="38" viewBox="0 0 39 38"><g><g><g><g><g><path fill="#222136" d="M33.109 12.653H1.134a.547.547 0 0 0-.548.546v15.349c0 .302.245.547.547.548H22.876a.548.548 0 0 0 0-1.096H1.682V13.749H32.56v1.37c0 .302.245.548.547.548h.001a.547.547 0 0 0 .548-.547V13.201a.547.547 0 0 0-.546-.548z"/></g></g></g><g><g><g><path fill="#222136" d="M29.39 10.108L3.813 4.353a.55.55 0 0 0-.655.416l-1.279 5.755a.548.548 0 0 0 1.07.238l1.16-5.219 25.042 5.634a.548.548 0 0 0 .24-1.07z"/></g></g></g><g><g><g><path fill="#222136" d="M26.285 6.937L10.938.542a.55.55 0 0 0-.704.262L8.955 3.362a.55.55 0 1 0 .984.49v.002l1.05-2.1 14.873 6.197a.55.55 0 0 0 .423-1.014z"/></g></g></g><g><g><g><path fill="#222136" d="M26.672 15.21h-5.075a.548.548 0 0 0 0 1.096h5.075a.548.548 0 0 0 0-1.096z"/></g></g></g><g><g><g><path fill="#222136" d="M16.481 25.478a4.604 4.604 0 1 1 0-9.208 4.604 4.604 0 0 1 0 9.208zm0-10.231a5.627 5.627 0 1 0 0 11.254 5.627 5.627 0 0 0 0-11.254z"/></g></g></g><g><g><g><path fill="#222136" d="M31.828 20.874c-3.735 0-5.652-.931-5.755-1.267v-.004c.103-.356 2.02-1.287 5.755-1.287 3.71 0 5.628.917 5.755 1.28-.127.361-2.046 1.278-5.755 1.278zm5.755 1.27c-.096.354-2.014 1.288-5.755 1.288-3.74 0-5.658-.934-5.755-1.279v-1.005c1.361.682 3.609 1.005 5.755 1.005 2.147 0 4.395-.323 5.755-1.006zm0 2.557c-.096.355-2.014 1.289-5.755 1.289-3.74 0-5.658-.934-5.755-1.28v-1.004c1.361.682 3.609 1.005 5.755 1.005 2.147 0 4.395-.323 5.755-1.006zm0 2.558c-.096.355-2.014 1.289-5.755 1.289-3.74 0-5.658-.934-5.755-1.28v-1.005c1.361.686 3.609 1.006 5.755 1.006 2.147 0 4.395-.323 5.755-1.006zm0 2.558c-.096.355-2.014 1.288-5.755 1.288-3.74 0-5.658-.933-5.755-1.279v-1.005c1.361.686 3.609 1.005 5.755 1.005 2.147 0 4.395-.322 5.755-1.005zm0 2.558c-.096.355-2.014 1.288-5.755 1.288-3.74 0-5.658-.933-5.755-1.279V31.38c1.361.686 3.609 1.005 5.755 1.005 2.147 0 4.395-.323 5.755-1.006zm0 2.558c-.096.354-2.014 1.288-5.755 1.288-3.74 0-5.658-.934-5.755-1.279v-1.005c1.361.685 3.609 1.005 5.755 1.005 2.147 0 4.395-.323 5.755-1.006zm-5.755-17.896c-3.389 0-7.034.8-7.034 2.558v15.347c0 1.757 3.645 2.558 7.034 2.558 3.39 0 7.034-.8 7.034-2.558V19.595c0-1.757-3.645-2.558-7.034-2.558z"/></g></g></g><g><g><g><path fill="#222136" d="M11.366 25.441H6.532L4.24 22.934v-4.156l2.531-2.472h4.595a.548.548 0 0 0 0-1.096H6.549a.549.549 0 0 0-.384.156l-2.857 2.786a.687.687 0 0 0-.165.448v4.547c0 .137.052.269.144.37l2.598 2.842c.104.113.25.178.405.178h5.076a.548.548 0 0 0 0-1.096z"/></g></g></g><g><g><g><path fill="#222136" d="M16.801 20.235h-.64c-.198 0-.32-.112-.32-.16 0-.049.122-.16.32-.16h1.6a.64.64 0 0 0 0-1.279h-.64a.64.64 0 0 0-1.28 0v.029c-.708.1-1.246.691-1.278 1.407.046.838.76 1.482 1.599 1.442h.639c.199 0 .32.11.32.16 0 .048-.121.16-.32.16h-1.599a.64.64 0 0 0 0 1.278h.64a.64.64 0 0 0 1.279 0v-.029c.709-.1 1.246-.69 1.279-1.406a1.527 1.527 0 0 0-1.599-1.442z"/></g></g></g></g></g></svg>