<svg xmlns="http://www.w3.org/2000/svg" width="25" height="14" viewBox="0 0 25 14"><g><g clip-path="url(#clip-fd842c75-95a6-434f-9fba-c73a2ba2398e)"><g><path d="M24.167 9.8h-.862c-.005-.032-.012-.063-.018-.095-.008-.04-.014-.079-.023-.118a5.184 5.184 0 0 0-.041-.157c-.01-.036-.02-.073-.032-.11-.016-.053-.038-.106-.058-.158-.013-.033-.023-.064-.038-.097-.014-.033-.03-.065-.046-.098h1.118zm0-1.667h-1.713l-.036-.032c-.038-.037-.076-.073-.118-.108a4.738 4.738 0 0 0-.214-.164 2.809 2.809 0 0 0-.331-.2c-.046-.027-.093-.047-.14-.069a2.576 2.576 0 0 0-.107-.046c-.05-.02-.1-.038-.15-.055-.036-.013-.072-.026-.11-.036-.053-.016-.107-.03-.16-.042-.037-.008-.072-.018-.108-.025a2.689 2.689 0 0 0-.185-.028 2.942 2.942 0 0 0-.378-.027 2.26 2.26 0 0 0-.286.017c-.031.002-.062.008-.093.012a2.766 2.766 0 0 0-.185.029c-.036.007-.071.016-.107.025a2.906 2.906 0 0 0-.162.041c-.037.011-.073.024-.109.037a2.666 2.666 0 0 0-.397.17 3.187 3.187 0 0 0-.235.135l-.096.065c-.042.03-.084.06-.125.093l-.09.07c-.04.035-.079.072-.118.109-.026.024-.053.048-.078.074-.04.04-.078.084-.116.125-.022.025-.043.048-.063.073a6.12 6.12 0 0 0-.125.167l-.036.048c-.05.075-.097.151-.14.23-.012.022-.022.046-.034.069-.028.058-.057.115-.083.175l-.037.097c-.02.052-.041.105-.059.159-.012.036-.021.073-.031.11a2.128 2.128 0 0 0-.064.275c-.006.031-.014.062-.018.094h-4.704l-.209-.833h4.466v-.834H12.41l-.86-3.443 8.993.448 2.561.995a2.081 2.081 0 0 1 1.064 1.818zM19.17 4.235l-7.834-.39-.774-3.098a14.77 14.77 0 0 1 4.56.985 14.572 14.572 0 0 1 3.783 2.281zM10.467 3.8L5.66 3.562 4.216 1.157l3.42-.361A16.84 16.84 0 0 1 9.402.705c.098 0 .195.006.292.006zm-5.408.382a.417.417 0 0 0 .337.201l5.282.263.872 3.487h-2.8v.83h3.008l.208.834H7.47c-.004-.032-.012-.063-.018-.095-.007-.04-.014-.079-.023-.118a4.875 4.875 0 0 0-.041-.157c-.01-.036-.02-.073-.032-.11-.016-.053-.038-.106-.058-.158l-.037-.097a2.244 2.244 0 0 0-.084-.175c-.011-.023-.021-.047-.034-.069a2.844 2.844 0 0 0-.14-.23c-.01-.016-.024-.031-.035-.048a2.867 2.867 0 0 0-.189-.24c-.038-.041-.073-.083-.115-.125-.026-.026-.052-.05-.079-.074-.039-.037-.076-.074-.118-.108a4.583 4.583 0 0 0-.214-.164 2.649 2.649 0 0 0-.331-.2c-.047-.027-.093-.047-.14-.069a2.953 2.953 0 0 0-.257-.101c-.037-.013-.072-.026-.11-.037-.053-.015-.107-.028-.161-.041-.036-.009-.07-.018-.107-.025a2.493 2.493 0 0 0-.186-.028l-.092-.014a2.941 2.941 0 0 0-.286-.014 2.876 2.876 0 0 0-.431.036l-.084.013a2.966 2.966 0 0 0-.393.098l-.07.026c-.117.042-.231.091-.342.147l-.048.023a2.97 2.97 0 0 0-.336.212l-.072.054c-.105.08-.204.167-.297.26l-.034.038a2.833 2.833 0 0 0-.235.28c-.016.021-.032.041-.047.063-.075.107-.143.22-.203.335l-.037.078a2.89 2.89 0 0 0-.149.368c-.001.004-.005.008-.005.013l-.967-.967V7.3H2.5c.191 0 .358-.13.404-.316l.417-1.667a.417.417 0 0 0-.404-.517H.95L2.41 2.977a.417.417 0 0 0 .047-.447l-.564-1.129 1.41-.149zM.833 5.633h1.55l-.208.834H.833zM2.5 10.217a2.083 2.083 0 1 1 4.167 0 2.083 2.083 0 0 1-4.167 0zm15.833 0a2.083 2.083 0 1 1 4.167 0 2.083 2.083 0 0 1-4.167 0zm6.25.416c.23 0 .417-.186.417-.416V7.95c0-1.068-.583-2.05-1.52-2.56a.403.403 0 0 0-.049-.023l-2.627-1.021-.569-.31-.796-.664a15.413 15.413 0 0 0-4-2.412 17.025 17.025 0 0 0-7.89-.994l-4.072.43-2.273.239a.417.417 0 0 0-.33.6l.717 1.429-1.5 1.875A.418.418 0 0 0 0 4.8v3.75c0 .11.043.216.121.295l1.554 1.553a2.913 2.913 0 0 0 5.792.235h10.066a2.913 2.913 0 0 0 5.767 0z"/></g><g><path d="M15 5.217h-2.083v.833H15z"/></g><g><path d="M8.333 5.217h-2.5v.833h2.5z"/></g></g></g></svg>