<svg xmlns="http://www.w3.org/2000/svg" width="10" height="12" viewBox="0 0 10 12"><g><g clip-path="url(#clip-f83ac8c7-5e24-4d36-8732-1b9421022255)"><g><g><g><path fill="#fff" d="M9.964 10.122L9.106 8.69A4.25 4.25 0 0 1 8.5 6.504V5.25A3.504 3.504 0 0 0 6 1.897V1a1.001 1.001 0 0 0-2 0v.898A3.504 3.504 0 0 0 1.5 5.25v1.254c0 .77-.21 1.526-.606 2.186l-.858 1.431a.25.25 0 0 0 .214.379h9.5a.25.25 0 0 0 .214-.378z"/></g></g></g><g><g><g><path fill="#fff" d="M3.425 11c.282.589.88 1 1.575 1s1.292-.411 1.574-1z"/></g></g></g></g></g></svg>