<svg xmlns="http://www.w3.org/2000/svg" width="11" height="14" viewBox="0 0 11 14"><defs><clipPath id="dggpa"><path fill="#fff" d="M5.25 0c2.9 0 5.25 2.35 5.25 5.25S5.25 14 5.25 14 0 8.15 0 5.25C0 2.35 2.35 0 5.25 0z"/></clipPath></defs><g><g><path fill="#fff" d="M5.25 0c2.9 0 5.25 2.35 5.25 5.25S5.25 14 5.25 14 0 8.15 0 5.25C0 2.35 2.35 0 5.25 0z"/><path fill="none" stroke="#ff0a0a" stroke-miterlimit="50" stroke-width="2" d="M5.25 0c2.9 0 5.25 2.35 5.25 5.25S5.25 14 5.25 14v0S0 8.15 0 5.25C0 2.35 2.35 0 5.25 0z" clip-path="url(&quot;#dggpa&quot;)"/></g></g></svg>