<svg xmlns="http://www.w3.org/2000/svg" width="12" height="12" viewBox="0 0 12 12"><g><g clip-path="url(#clip-c82ad319-16e3-4f8b-946e-84e918a56e45)"><g><path fill="#222136" d="M6.019 8.25a2.25 2.25 0 1 1 0-4.5 2.25 2.25 0 0 1 0 4.5zm5.542-3.124l-1.189-.198a4.478 4.478 0 0 0-.376-1.006l.76-.943a.524.524 0 0 0-.015-.68l-.473-.531a.525.525 0 0 0-.672-.096l-1.017.639a4.473 4.473 0 0 0-1.5-.677L6.88.439A.524.524 0 0 0 6.362 0H5.65a.523.523 0 0 0-.517.439l-.2 1.195a4.47 4.47 0 0 0-1.262.525l-.967-.69a.525.525 0 0 0-.676.055l-.503.504a.525.525 0 0 0-.056.677l.692.968c-.233.384-.41.805-.52 1.253l-1.202.2A.525.525 0 0 0 0 5.644v.712c0 .257.186.476.439.518l1.202.2c.09.369.222.72.397 1.047l-.757.938a.525.525 0 0 0 .016.679l.472.532a.525.525 0 0 0 .673.096l1.031-.648c.437.298.93.518 1.46.648l.2 1.195c.04.253.26.439.517.439h.712a.524.524 0 0 0 .518-.439l.2-1.195c.445-.11.864-.285 1.247-.516l1.007.72c.208.149.494.125.676-.057l.503-.503a.523.523 0 0 0 .056-.676l-.717-1.005a4.46 4.46 0 0 0 .52-1.257l1.19-.198A.524.524 0 0 0 12 6.356v-.712a.525.525 0 0 0-.44-.518z"/></g></g></g></svg>