<svg xmlns="http://www.w3.org/2000/svg" width="29" height="34" viewBox="0 0 29 34"><g><g><g><g><g><path fill="#fff" d="M14.704 2.657a.662.662 0 0 0-.663.663.662.662 0 1 0 1.327 0 .662.662 0 0 0-.664-.663z"/></g></g></g><g><g><g><path fill="#fff" d="M27.321 15.485c0 7.932-5.061 14.802-12.617 17.157A17.956 17.956 0 0 1 2.087 15.485V5.265a4.66 4.66 0 0 0 3.937-3.937h17.36a4.66 4.66 0 0 0 3.937 3.937zm.664-11.5c-1.83 0-3.32-1.49-3.32-3.32A.664.664 0 0 0 24 0H5.407a.664.664 0 0 0-.664.664c0 1.83-1.49 3.32-3.32 3.32a.664.664 0 0 0-.664.664v10.837c0 8.446 5.504 16.013 13.754 18.487a.666.666 0 0 0 .382 0c8.07-2.421 13.754-9.857 13.754-18.487V4.648a.664.664 0 0 0-.664-.664z"/></g></g></g><g><g><g><path fill="#fff" d="M25.595 6.142a5.982 5.982 0 0 1-3.088-3.088.664.664 0 0 0-.608-.398h-4.54a.664.664 0 0 0 0 1.328h4.12a7.3 7.3 0 0 0 3.186 3.186v8.315c0 6.499-3.901 12.106-9.961 14.35-6.06-2.244-9.961-7.851-9.961-14.35V7.17a7.3 7.3 0 0 0 3.186-3.186h4.12a.664.664 0 0 0 0-1.328h-4.54a.664.664 0 0 0-.608.398 5.982 5.982 0 0 1-3.089 3.088.664.664 0 0 0-.397.608v8.735c0 7.12 4.403 13.325 11.067 15.683a.664.664 0 0 0 .443 0c6.659-2.356 11.068-8.557 11.068-15.683V6.75a.664.664 0 0 0-.398-.608z"/></g></g></g><g><g><g><path fill="#fff" d="M14.704 20.32a4.654 4.654 0 0 1-4.649-4.648 4.654 4.654 0 0 1 4.649-4.649 4.654 4.654 0 0 1 4.648 4.649 4.654 4.654 0 0 1-4.648 4.648zm0-10.625a5.983 5.983 0 0 0-5.977 5.977 5.983 5.983 0 0 0 5.977 5.976 5.983 5.983 0 0 0 5.976-5.976 5.983 5.983 0 0 0-5.976-5.977z"/></g></g></g><g><g><g><path fill="#fff" d="M17.83 13.874a.664.664 0 0 0-.94 0l-2.85 2.85-.859-.858a.664.664 0 0 0-.939.94l1.328 1.328a.662.662 0 0 0 .94 0l3.32-3.32c.26-.26.26-.68 0-.94z"/></g></g></g></g></g></svg>