<svg xmlns="http://www.w3.org/2000/svg" width="54" height="25" viewBox="0 0 54 25"><g><g><g><path fill="#222136" d="M45.02 20.198a1.347 1.347 0 1 0 2.694 0 1.347 1.347 0 0 0-2.694 0z"/></g><g><path fill="#222136" d="M1.93 18.25l.882-1.192h6.547c-.013.017-.021.036-.034.052-.182.228-.343.47-.481.726-.013.024-.032.045-.045.069-.149.287-.27.587-.36.898-.004.018-.014.032-.02.05H1.93zm8.977-2.988a1.796 1.796 0 0 1-1.796-1.796 1.77 1.77 0 1 1 1.796 1.796zm0 0zm2.244 8.08A3.142 3.142 0 0 1 10.01 20.2a1.55 1.55 0 0 1 .02-.198l.02-.151a3.12 3.12 0 0 1 6.205 0l.02.151c.01.066.017.131.02.198a3.142 3.142 0 0 1-3.143 3.142zm.848-8.08a3.556 3.556 0 0 0 .5-1.796h9.874c.004.633.176 1.252.5 1.796zm2.946 1.795h11.02v1.79h-10.08c-.005-.017-.015-.032-.02-.05-.09-.31-.21-.61-.36-.898-.013-.025-.032-.046-.045-.071a4.96 4.96 0 0 0-.48-.718c-.013-.017-.021-.036-.035-.053zm11.02-1.795a1.796 1.796 0 1 1 1.795-1.796 1.81 1.81 0 0 1-1.795 1.796zm1.795 1.795h8.08v3.591h-8.08zm1.303-5.386a3.716 3.716 0 0 0-.221-.337c-.012-.016-.02-.033-.032-.048a3.637 3.637 0 0 0-.34-.382c-.037-.036-.076-.066-.113-.1a3.424 3.424 0 0 0-.277-.23c-.05-.036-.102-.068-.154-.103a3.846 3.846 0 0 0-.458-.257 3.925 3.925 0 0 0-.298-.122c-.059-.022-.118-.044-.18-.063a3.93 3.93 0 0 0-.34-.082c-.054-.01-.107-.025-.163-.033a3.297 3.297 0 0 0-1.041 0c-.056.008-.11.023-.165.033a3.875 3.875 0 0 0-.338.082c-.06.019-.12.041-.18.063a3.868 3.868 0 0 0-.477.213 3.182 3.182 0 0 0-.278.166c-.052.034-.105.068-.155.104a3.91 3.91 0 0 0-.276.23c-.038.034-.077.064-.113.1-.122.118-.236.246-.34.382-.01.013-.019.03-.03.043a3.69 3.69 0 0 0-.228.341h-5.88V7.182h8.923l5.554.694c.449.056.786.438.786.892v2.903h-3.186zm-4.775-6.285h-7.3v-3.59h3.95a1.795 1.795 0 0 1 1.488.8zm-9.096 1.796v4.488H14.01a3.779 3.779 0 0 0-.226-.337c-.011-.015-.02-.032-.032-.047a3.668 3.668 0 0 0-.34-.383c-.036-.035-.075-.065-.112-.098a3.393 3.393 0 0 0-.278-.23c-.049-.037-.102-.07-.153-.104a3.826 3.826 0 0 0-.458-.257 3.774 3.774 0 0 0-.298-.122c-.06-.022-.119-.044-.18-.063a3.762 3.762 0 0 0-.34-.082c-.055-.01-.108-.025-.163-.033a3.298 3.298 0 0 0-1.042 0c-.056.008-.11.022-.164.033a3.885 3.885 0 0 0-.338.082c-.06.019-.12.041-.18.063a3.768 3.768 0 0 0-.755.38c-.052.033-.105.067-.156.103-.096.071-.185.15-.275.23-.038.034-.077.064-.113.1a3.616 3.616 0 0 0-.34.381c-.011.014-.02.03-.03.044-.082.11-.158.223-.228.34H4.623V8.08c0-.496.401-.898.898-.898zm0-1.795H10.13l2.45-2.945c.341-.41.846-.646 1.38-.647h3.231zm22.443-.898h4.112l1.293 6.463a.897.897 0 0 0 .873.719h.077l6.214.048v3.543H39.635zm0 14.364v-1.795h2.942c-.014.017-.022.036-.035.052-.181.228-.342.47-.48.726-.014.024-.032.045-.046.069a4.952 4.952 0 0 0-.359.898c-.005.018-.02.032-.02.05zm6.734 4.489a3.142 3.142 0 0 1-3.142-3.142c.002-.067.009-.133.02-.198l.02-.151a3.12 3.12 0 0 1 6.205 0l.02.151c.01.066.016.131.019.198a3.142 3.142 0 0 1-3.142 3.142zm3.828-6.232c-.013-.017-.02-.036-.034-.053h2.041v1.79h-1.102c-.005-.017-.014-.032-.02-.05a5 5 0 0 0-.359-.898c-.013-.025-.032-.046-.046-.071a4.975 4.975 0 0 0-.48-.718zm1.307-7.192l-4.848-.037-1.077-5.392h2.537zM.314 17.422a.898.898 0 0 0-.18.533v1.796c0 .495.402.897.897.897h7.205a4.937 4.937 0 0 0 9.83 0h9.899v.898c0 .496.401.898.897.898h9.876a.897.897 0 0 0 .897-.898v-.898h1.819a4.937 4.937 0 0 0 9.83 0h1.818a.898.898 0 0 0 .898-.897v-8.923c0-.186-.047-.368-.137-.53l-4.489-7.183a.897.897 0 0 0-.761-.422h-9.875a.898.898 0 0 0-.898.898v11.67h-6.783a3.552 3.552 0 0 0 .499-1.795h3.59a.898.898 0 0 0 .898-.897V8.768a2.693 2.693 0 0 0-2.354-2.673l-5.202-.65-2.563-3.846c-.665-1-1.787-1.6-2.988-1.599H13.96a3.58 3.58 0 0 0-2.754 1.291L7.793 5.386H5.521A2.693 2.693 0 0 0 2.827 8.08v4.489c0 .495.402.897.898.897h3.591c.002.632.173 1.252.495 1.796H2.35a.896.896 0 0 0-.717.365z"/></g><g><path fill="#222136" d="M11.805 20.198a1.347 1.347 0 1 0 2.693 0 1.347 1.347 0 0 0-2.693 0z"/></g></g></g></svg>