<svg xmlns="http://www.w3.org/2000/svg" width="86" height="40" viewBox="0 0 86 40"><g><g><g><path fill="#fff" d="M71.486 32.168a2.145 2.145 0 1 0 4.29 0 2.145 2.145 0 0 0-4.29 0z"/></g><g><path fill="#fff" d="M2.86 29.066l1.405-1.899h10.427c-.021.026-.034.057-.054.083a7.8 7.8 0 0 0-.767 1.156c-.02.038-.05.071-.07.11a7.847 7.847 0 0 0-.573 1.43c-.008.028-.024.05-.032.08H2.86zm11.438-7.62a2.82 2.82 0 1 1 2.86 2.86 2.86 2.86 0 0 1-2.86-2.86zm1.43 10.724a2.47 2.47 0 0 1 .031-.315l.032-.241a4.969 4.969 0 0 1 9.882 0l.032.241c.017.105.027.21.031.315a5.004 5.004 0 0 1-10.008 0zm6.354-7.864a5.664 5.664 0 0 0 .795-2.86h15.727a5.656 5.656 0 0 0 .795 2.86zm4.692 2.86h17.55v2.85H28.27c-.007-.028-.023-.05-.031-.08a7.966 7.966 0 0 0-.572-1.43c-.022-.04-.052-.074-.074-.113a7.9 7.9 0 0 0-.765-1.144c-.02-.026-.032-.058-.054-.083zm17.55-2.86a2.86 2.86 0 1 1 2.859-2.86 2.884 2.884 0 0 1-2.86 2.86zm2.859 2.86h12.868v5.719H47.183zm2.074-8.58a5.924 5.924 0 0 0-.351-.536c-.02-.025-.033-.052-.052-.076a5.79 5.79 0 0 0-.542-.609c-.057-.056-.12-.105-.178-.158a5.449 5.449 0 0 0-.442-.366c-.079-.058-.163-.11-.245-.165a6.132 6.132 0 0 0-.443-.266 8.397 8.397 0 0 0-.286-.143 6.246 6.246 0 0 0-.475-.195c-.094-.034-.188-.07-.285-.1a6.26 6.26 0 0 0-.542-.13c-.088-.017-.172-.04-.26-.053a5.25 5.25 0 0 0-1.66 0c-.088.013-.174.036-.261.053a6.17 6.17 0 0 0-.539.13c-.095.03-.19.066-.286.1a6.142 6.142 0 0 0-.76.339 5.07 5.07 0 0 0-.442.266c-.083.054-.167.107-.248.166a6.234 6.234 0 0 0-.438.364c-.06.055-.124.103-.18.16-.196.189-.377.392-.543.608-.017.022-.03.047-.047.069-.131.174-.252.355-.363.543h-9.364v-7.149h14.21l8.844 1.105a1.43 1.43 0 0 1 1.253 1.42v4.624zM41.653 8.579H30.026V2.86h6.29a2.86 2.86 0 0 1 2.372 1.275zm-14.487 2.86v7.148H22.1a6.015 6.015 0 0 0-.359-.537c-.019-.024-.033-.051-.051-.075a5.84 5.84 0 0 0-.543-.61c-.056-.055-.12-.104-.178-.157a5.4 5.4 0 0 0-.442-.366c-.078-.058-.163-.11-.245-.165a6.1 6.1 0 0 0-.442-.266 6.008 6.008 0 0 0-.76-.337c-.096-.035-.19-.071-.287-.1a5.989 5.989 0 0 0-.542-.131c-.087-.018-.172-.04-.26-.053a5.251 5.251 0 0 0-1.659 0c-.089.013-.174.035-.262.053a6.188 6.188 0 0 0-.538.13c-.095.03-.19.066-.287.1a5.992 5.992 0 0 0-.76.339 5.05 5.05 0 0 0-.442.266c-.083.054-.167.107-.247.166a6.104 6.104 0 0 0-.44.364c-.06.055-.122.103-.18.16-.194.189-.375.392-.542.608-.017.021-.03.047-.047.069-.13.174-.252.355-.363.543H7.15v-5.72c0-.789.64-1.429 1.43-1.429h18.587zm0-2.859H15.92l3.902-4.69a2.86 2.86 0 0 1 2.197-1.03h5.147zm35.744-1.43h6.549l2.059 10.294a1.43 1.43 0 0 0 1.39 1.144h.122l9.897.076v5.643H62.91zm0 22.876zm0 0v-2.858h4.685c-.022.026-.035.057-.055.083-.29.362-.546.748-.766 1.156-.022.038-.05.071-.072.11a7.887 7.887 0 0 0-.572 1.43c-.008.028-.031.05-.031.08zm10.724 7.15a5.004 5.004 0 0 1-5.004-5.005c.004-.106.014-.21.031-.315l.032-.241a4.968 4.968 0 0 1 9.882 0l.032.241c.016.105.027.21.031.315a5.004 5.004 0 0 1-5.004 5.004zm6.042-10.01h3.251v2.851h-1.755c-.007-.028-.023-.05-.032-.08a7.964 7.964 0 0 0-.572-1.43c-.021-.04-.051-.074-.073-.113a7.927 7.927 0 0 0-.764-1.144c-.02-.026-.034-.058-.055-.083zm2.136-11.37l-7.72-.059-1.716-8.587h4.04zM.286 27.746a1.43 1.43 0 0 0-.286.85v2.86c0 .789.64 1.429 1.43 1.429h11.474a7.863 7.863 0 0 0 15.656 0h15.764v1.43c0 .789.64 1.429 1.429 1.429H61.48c.79 0 1.43-.64 1.43-1.43v-1.43h2.895a7.864 7.864 0 0 0 15.656 0h2.895c.79 0 1.43-.64 1.43-1.429v-14.21c0-.296-.075-.587-.218-.846L78.42 4.961a1.429 1.429 0 0 0-1.212-.672H61.481c-.79 0-1.43.64-1.43 1.43v18.587H49.248a5.657 5.657 0 0 0 .794-2.86h5.72c.79 0 1.43-.64 1.43-1.43v-6.053a4.29 4.29 0 0 0-3.75-4.257L45.156 8.67l-4.082-6.124A5.71 5.71 0 0 0 36.316 0H22.02a5.703 5.703 0 0 0-4.387 2.056L12.2 8.578h-3.62a4.29 4.29 0 0 0-4.29 4.29v7.149c0 .79.64 1.43 1.43 1.43h5.72a5.658 5.658 0 0 0 .787 2.86H3.533a1.427 1.427 0 0 0-1.144.58z"/></g><g><path fill="#fff" d="M18.587 32.168a2.145 2.145 0 1 0 4.29 0 2.145 2.145 0 0 0-4.29 0z"/></g></g></g></svg>