<svg xmlns="http://www.w3.org/2000/svg" width="67" height="40" viewBox="0 0 67 40"><g><g><g><path fill="#fff" d="M64.442 24.442H62.22V22.22h2.222zm0 4.445h-4.444v2.222h4.444v2.222h-6.667a6.666 6.666 0 0 0-13.332 0H19.999a6.666 6.666 0 0 0-13.332 0H2.222v-2.222h3.333v-2.222H2.222V21.11h41.11v-2.223H2.222V4.444c0-1.228.995-2.223 2.223-2.223H50.16c.83-.006 1.59.455 1.97 1.192l.469 1.03h-3.712a3.333 3.333 0 0 0-3.333 3.333v5.556a3.333 3.333 0 0 0 3.333 3.333h9.667l4.902 3.268c.028.019.048.045.075.065H61.11a1.11 1.11 0 0 0-1.111 1.112v4.444c0 .613.497 1.11 1.11 1.11h3.334zm-8.978 5.333a4.444 4.444 0 1 1-8.71-1.78 4.444 4.444 0 0 1 8.71 1.78zm-37.777 0a4.445 4.445 0 1 1-8.709-1.78 4.445 4.445 0 0 1 8.71 1.78zM57.09 14.443h-8.202a1.11 1.11 0 0 1-1.11-1.111V7.776c0-.613.496-1.11 1.11-1.11H53.2zm7.596 3.641l-4.919-3.279-5.63-12.35A4.421 4.421 0 0 0 50.16 0H4.444A4.444 4.444 0 0 0 0 4.444v29.998c0 .614.497 1.111 1.111 1.111h5.954a6.642 6.642 0 0 0 12.536 0h25.24a6.642 6.642 0 0 0 12.537 0h8.175a1.11 1.11 0 0 0 1.111-1.11V21.11a3.501 3.501 0 0 0-1.979-3.026z"/></g><g><path fill="#fff" d="M45.554 18.887h5.555v2.223h-5.555z"/></g><g><path fill="#fff" d="M21.11 28.887h22.221v2.222h-22.22z"/></g></g></g></svg>