<svg xmlns="http://www.w3.org/2000/svg" width="15" height="15" viewBox="0 0 15 15"><g><g><g><path fill="#010002" d="M14.993 11.835a.725.725 0 0 1-.222.635l-2.112 2.096c-.096.106-.22.196-.374.27a1.542 1.542 0 0 1-.452.143l-.095.008a2.161 2.161 0 0 1-.207.008c-.201 0-.527-.034-.976-.103-.45-.069-1-.238-1.652-.508-.651-.27-1.39-.675-2.215-1.215-.826-.54-1.704-1.281-2.636-2.223A17.401 17.401 0 0 1 2.21 8.85 14.935 14.935 0 0 1 1.035 7a9.964 9.964 0 0 1-.667-1.54 8.172 8.172 0 0 1-.302-1.191 3.934 3.934 0 0 1-.063-.786c.01-.191.016-.297.016-.318.02-.148.068-.3.142-.453a1.19 1.19 0 0 1 .27-.373L2.543.227a.7.7 0 0 1 .509-.222c.137 0 .259.04.365.119.106.08.196.177.27.294L5.386 3.64c.095.17.122.355.08.556a.99.99 0 0 1-.27.508l-.779.778a.265.265 0 0 0-.055.104.392.392 0 0 0-.024.119c.042.222.137.476.286.762.127.254.322.564.587.929.265.365.64.786 1.128 1.262.476.487.9.866 1.27 1.136.37.27.68.468.929.595.249.127.44.204.572.23l.198.04a.379.379 0 0 0 .103-.024.265.265 0 0 0 .103-.055l.906-.921a.973.973 0 0 1 .666-.255.83.83 0 0 1 .43.096h.015l3.065 1.81c.222.138.354.312.397.524z"/></g></g></g></svg>