<svg xmlns="http://www.w3.org/2000/svg" width="22" height="15" viewBox="0 0 22 15"><g><g><g><path fill="#f5f5f5" d="M21.62 14.414H.38a.38.38 0 0 1-.38-.38V.38C0 .17.17 0 .38 0h21.24c.21 0 .38.17.38.38v13.655c0 .21-.17.379-.38.379z"/></g><g><g><path fill="#ff4b55" d="M22 1.109H0v-.73C0 .17.17 0 .38 0h21.24c.21 0 .38.17.38.38v.729z"/></g><g><path fill="#ff4b55" d="M0 5.544V4.435h22v1.109z"/></g><g><path fill="#ff4b55" d="M0 3.326V2.218h22v1.108z"/></g><g><path fill="#ff4b55" d="M22 7.761H.38A.38.38 0 0 1 0 7.382v-.73h22z"/></g><g><path fill="#ff4b55" d="M0 12.197v-1.109h22v1.109z"/></g><g><path fill="#ff4b55" d="M21.62 14.414H.38a.38.38 0 0 1-.38-.38v-.729h22v.73c0 .21-.17.379-.38.379z"/></g><g><path fill="#ff4b55" d="M0 9.98V8.87h22v1.11z"/></g></g><g><path fill="#41479b" d="M9.862 0H.38A.38.38 0 0 0 0 .38v7.002c0 .21.17.38.38.38h9.482c.21 0 .38-.17.38-.38V.38A.38.38 0 0 0 9.861 0z"/></g><g><g><path fill="#f5f5f5" d="M1.065.87l.084.253.266.002c.034 0 .048.044.02.064l-.213.158.08.253a.036.036 0 0 1-.055.04l-.216-.155-.216.155A.036.036 0 0 1 .76 1.6l.08-.253-.213-.158a.036.036 0 0 1 .021-.064l.265-.002L.997.87a.036.036 0 0 1 .068 0z"/></g><g><path fill="#f5f5f5" d="M1.065 2.188l.084.252.266.002c.034 0 .048.044.02.064l-.213.158.08.253a.036.036 0 0 1-.055.04l-.216-.154-.216.154a.036.036 0 0 1-.055-.04l.08-.253-.213-.158a.036.036 0 0 1 .021-.064l.265-.002.084-.252a.036.036 0 0 1 .068 0z"/></g><g><path fill="#f5f5f5" d="M1.065 3.505l.084.252.266.002c.034 0 .048.044.02.064l-.213.158.08.253a.036.036 0 0 1-.055.04l-.216-.154-.216.154a.036.036 0 0 1-.055-.04l.08-.253-.213-.158a.036.036 0 0 1 .021-.064l.265-.002.084-.252a.036.036 0 0 1 .068 0z"/></g><g><path fill="#f5f5f5" d="M1.065 4.822l.084.252.266.002c.034 0 .048.044.02.065l-.213.157.08.253a.036.036 0 0 1-.055.04l-.216-.154-.216.154a.036.036 0 0 1-.055-.04l.08-.253-.213-.157a.036.036 0 0 1 .021-.065l.265-.002.084-.252a.036.036 0 0 1 .068 0z"/></g><g><path fill="#f5f5f5" d="M1.065 6.14l.084.251.266.002c.034 0 .048.044.02.065l-.213.157.08.254a.036.036 0 0 1-.055.04l-.216-.155-.216.154a.036.036 0 0 1-.055-.04l.08-.252-.213-.158a.036.036 0 0 1 .021-.065l.265-.002.084-.252a.036.036 0 0 1 .068 0z"/></g><g><path fill="#f5f5f5" d="M2.088 1.517l.083.251.266.002c.034 0 .048.044.02.065l-.213.158.08.253a.036.036 0 0 1-.054.04l-.216-.155-.216.154a.036.036 0 0 1-.055-.04l.08-.252-.214-.158a.036.036 0 0 1 .021-.065l.266-.002.084-.251a.036.036 0 0 1 .068 0z"/></g><g><path fill="#f5f5f5" d="M2.088 2.834l.083.252.266.002c.034 0 .048.044.02.064l-.213.158.08.253a.036.036 0 0 1-.054.04l-.216-.155-.216.155a.036.036 0 0 1-.055-.04l.08-.253-.214-.158a.036.036 0 0 1 .021-.064l.266-.002.084-.252a.036.036 0 0 1 .068 0z"/></g><g><path fill="#f5f5f5" d="M2.088 4.15l.083.253.266.002c.034 0 .048.044.02.064l-.213.158.08.253a.036.036 0 0 1-.054.04l-.216-.154-.216.154a.036.036 0 0 1-.055-.04l.08-.253-.214-.158a.036.036 0 0 1 .021-.064l.266-.002.084-.252a.036.036 0 0 1 .068 0z"/></g><g><path fill="#f5f5f5" d="M2.088 5.468l.083.252.266.002c.034 0 .048.044.02.064l-.213.158.08.253a.036.036 0 0 1-.054.04l-.216-.154-.216.154a.036.036 0 0 1-.055-.04l.08-.253-.214-.158a.036.036 0 0 1 .021-.064l.266-.002.084-.252a.036.036 0 0 1 .068 0z"/></g><g><path fill="#f5f5f5" d="M3.11.87l.084.253.265.002c.035 0 .049.044.021.064l-.213.158.08.253a.036.036 0 0 1-.055.04l-.216-.155-.216.155a.036.036 0 0 1-.055-.04l.08-.253-.213-.158a.036.036 0 0 1 .02-.064l.266-.002.084-.252a.036.036 0 0 1 .068 0z"/></g><g><path fill="#f5f5f5" d="M3.11 2.188l.084.252.265.002c.035 0 .049.044.021.064l-.213.158.08.253a.036.036 0 0 1-.055.04l-.216-.154-.216.154a.036.036 0 0 1-.055-.04l.08-.253-.213-.158a.036.036 0 0 1 .02-.064l.266-.002.084-.252a.036.036 0 0 1 .068 0z"/></g><g><path fill="#f5f5f5" d="M3.11 3.505l.084.252.265.002c.035 0 .049.044.021.064l-.213.158.08.253a.036.036 0 0 1-.055.04l-.216-.154-.216.154a.036.036 0 0 1-.055-.04l.08-.253-.213-.158a.036.036 0 0 1 .02-.064l.266-.002.084-.252a.036.036 0 0 1 .068 0z"/></g><g><path fill="#f5f5f5" d="M3.11 4.822l.084.252.265.002c.035 0 .049.044.021.065l-.213.157.08.253a.036.036 0 0 1-.055.04l-.216-.154-.216.154a.036.036 0 0 1-.055-.04l.08-.253-.213-.157a.036.036 0 0 1 .02-.065l.266-.002.084-.252a.036.036 0 0 1 .068 0z"/></g><g><path fill="#f5f5f5" d="M3.11 6.14l.084.251.265.002c.035 0 .049.044.021.065l-.213.157.08.254a.036.036 0 0 1-.055.04l-.216-.155-.216.154a.036.036 0 0 1-.055-.04l.08-.253-.213-.157a.036.036 0 0 1 .02-.065l.266-.002.084-.252a.036.036 0 0 1 .068 0z"/></g><g><path fill="#f5f5f5" d="M4.132 1.517l.084.251.266.002c.034 0 .048.044.02.065l-.213.158.08.253a.036.036 0 0 1-.055.04l-.216-.155-.216.154a.036.036 0 0 1-.054-.04l.08-.252-.214-.158a.036.036 0 0 1 .021-.065l.265-.002.084-.251a.036.036 0 0 1 .068 0z"/></g><g><path fill="#f5f5f5" d="M4.132 2.834l.084.252.266.002c.034 0 .048.044.02.064l-.213.158.08.253a.036.036 0 0 1-.055.04l-.216-.155-.216.155a.036.036 0 0 1-.054-.04l.08-.253-.214-.158a.036.036 0 0 1 .021-.064l.265-.002.084-.252a.036.036 0 0 1 .068 0z"/></g><g><path fill="#f5f5f5" d="M4.132 4.15l.084.253.266.002c.034 0 .048.044.02.064l-.213.158.08.253a.036.036 0 0 1-.055.04l-.216-.154-.216.154a.036.036 0 0 1-.054-.04l.08-.253-.214-.158a.036.036 0 0 1 .021-.064l.265-.002.084-.252a.036.036 0 0 1 .068 0z"/></g><g><path fill="#f5f5f5" d="M4.132 5.468l.084.252.266.002c.034 0 .048.044.02.064l-.213.158.08.253a.036.036 0 0 1-.055.04l-.216-.154-.216.154a.036.036 0 0 1-.054-.04l.08-.253-.214-.158a.036.036 0 0 1 .021-.064l.265-.002.084-.252a.036.036 0 0 1 .068 0z"/></g><g><path fill="#f5f5f5" d="M5.155.87l.084.253.265.002c.034 0 .049.044.021.064l-.214.158.08.253a.036.036 0 0 1-.054.04l-.216-.155-.216.155a.036.036 0 0 1-.055-.04l.08-.253-.214-.158a.036.036 0 0 1 .021-.064l.266-.002.084-.252a.036.036 0 0 1 .068 0z"/></g><g><path fill="#f5f5f5" d="M5.155 2.188l.084.252.265.002c.034 0 .049.044.021.064l-.214.158.08.253a.036.036 0 0 1-.054.04l-.216-.154-.216.154a.036.036 0 0 1-.055-.04l.08-.253-.214-.158a.036.036 0 0 1 .021-.064l.266-.002.084-.252a.036.036 0 0 1 .068 0z"/></g><g><path fill="#f5f5f5" d="M5.155 3.505l.084.252.265.002c.034 0 .049.044.021.064l-.214.158.08.253a.036.036 0 0 1-.054.04L5.12 4.12l-.216.154a.036.036 0 0 1-.055-.04l.08-.253-.214-.158a.036.036 0 0 1 .021-.064l.266-.002.084-.252a.036.036 0 0 1 .068 0z"/></g><g><path fill="#f5f5f5" d="M5.155 4.822l.084.252.265.002c.034 0 .049.044.021.065l-.214.157.08.253a.036.036 0 0 1-.054.04l-.216-.154-.216.154a.036.036 0 0 1-.055-.04l.08-.253-.214-.157a.036.036 0 0 1 .021-.065l.266-.002.084-.252a.036.036 0 0 1 .068 0z"/></g><g><path fill="#f5f5f5" d="M5.155 6.14l.084.251.265.002c.034 0 .049.044.021.065l-.214.157.08.254a.036.036 0 0 1-.054.04l-.216-.155-.216.154a.036.036 0 0 1-.055-.04l.08-.253-.214-.157a.036.036 0 0 1 .021-.065l.266-.002.084-.252a.036.036 0 0 1 .068 0z"/></g><g><path fill="#f5f5f5" d="M6.177 1.517l.084.251.265.002c.035 0 .049.044.021.065l-.213.158.08.253a.036.036 0 0 1-.055.04l-.216-.155-.216.154a.036.036 0 0 1-.055-.04l.08-.252-.213-.158a.036.036 0 0 1 .02-.065l.266-.002.084-.251a.036.036 0 0 1 .068 0z"/></g><g><path fill="#f5f5f5" d="M6.177 2.834l.084.252.265.002c.035 0 .049.044.021.064l-.213.158.08.253a.036.036 0 0 1-.055.04l-.216-.155-.216.155a.036.036 0 0 1-.055-.04l.08-.253-.213-.158a.036.036 0 0 1 .02-.064l.266-.002.084-.252a.036.036 0 0 1 .068 0z"/></g><g><path fill="#f5f5f5" d="M6.177 4.15l.084.253.265.002c.035 0 .049.044.021.064l-.213.158.08.253a.036.036 0 0 1-.055.04l-.216-.154-.216.154a.036.036 0 0 1-.055-.04l.08-.253-.213-.158a.036.036 0 0 1 .02-.064l.266-.002.084-.252a.036.036 0 0 1 .068 0z"/></g><g><path fill="#f5f5f5" d="M6.177 5.468l.084.252.265.002c.035 0 .049.044.021.064l-.213.158.08.253a.036.036 0 0 1-.055.04l-.216-.154-.216.154a.036.036 0 0 1-.055-.04l.08-.253-.213-.158a.036.036 0 0 1 .02-.064l.266-.002.084-.252a.036.036 0 0 1 .068 0z"/></g><g><path fill="#f5f5f5" d="M7.2.87l.083.253.266.002c.034 0 .048.044.02.064l-.213.158.08.253a.036.036 0 0 1-.055.04l-.216-.155-.215.155a.036.036 0 0 1-.055-.04l.08-.253-.214-.158a.036.036 0 0 1 .021-.064l.266-.002.084-.252a.036.036 0 0 1 .067 0z"/></g><g><path fill="#f5f5f5" d="M7.2 2.188l.083.252.266.002c.034 0 .048.044.02.064l-.213.158.08.253a.036.036 0 0 1-.055.04l-.216-.154-.215.154a.036.036 0 0 1-.055-.04l.08-.253-.214-.158a.036.036 0 0 1 .021-.064l.266-.002.084-.252a.036.036 0 0 1 .067 0z"/></g><g><path fill="#f5f5f5" d="M7.2 3.505l.083.252.266.002c.034 0 .048.044.02.064l-.213.158.08.253a.036.036 0 0 1-.055.04l-.216-.154-.215.154a.036.036 0 0 1-.055-.04l.08-.253-.214-.158a.036.036 0 0 1 .021-.064l.266-.002.084-.252a.036.036 0 0 1 .067 0z"/></g><g><path fill="#f5f5f5" d="M7.2 4.822l.083.252.266.002c.034 0 .048.044.02.065l-.213.157.08.253a.036.036 0 0 1-.055.04l-.216-.154-.215.154a.036.036 0 0 1-.055-.04l.08-.253-.214-.157a.036.036 0 0 1 .021-.065l.266-.002.084-.252a.036.036 0 0 1 .067 0z"/></g><g><path fill="#f5f5f5" d="M7.2 6.14l.083.251.266.002c.034 0 .048.044.02.065l-.213.157.08.254a.036.036 0 0 1-.055.04l-.216-.155-.215.154a.036.036 0 0 1-.055-.04l.08-.253-.214-.157a.036.036 0 0 1 .021-.065l.266-.002.084-.252a.036.036 0 0 1 .067 0z"/></g><g><path fill="#f5f5f5" d="M8.222 1.517l.084.251.265.002c.034 0 .049.044.021.065l-.213.158.08.253a.036.036 0 0 1-.055.04l-.216-.155-.216.154a.036.036 0 0 1-.055-.04l.08-.252-.213-.158a.036.036 0 0 1 .02-.065l.266-.002.084-.251a.036.036 0 0 1 .068 0z"/></g><g><path fill="#f5f5f5" d="M8.222 2.834l.084.252.265.002c.034 0 .049.044.021.064l-.213.158.08.253a.036.036 0 0 1-.055.04l-.216-.155-.216.155a.036.036 0 0 1-.055-.04l.08-.253-.213-.158a.036.036 0 0 1 .02-.064l.266-.002.084-.252a.036.036 0 0 1 .068 0z"/></g><g><path fill="#f5f5f5" d="M8.222 4.15l.084.253.265.002c.034 0 .049.044.021.064l-.213.158.08.253a.036.036 0 0 1-.055.04l-.216-.154-.216.154a.036.036 0 0 1-.055-.04l.08-.253-.213-.158a.036.036 0 0 1 .02-.064l.266-.002.084-.252a.036.036 0 0 1 .068 0z"/></g><g><path fill="#f5f5f5" d="M8.222 5.468l.084.252.265.002c.034 0 .049.044.021.064l-.213.158.08.253a.036.036 0 0 1-.055.04l-.216-.154-.216.154a.036.036 0 0 1-.055-.04l.08-.253-.213-.158a.036.036 0 0 1 .02-.064l.266-.002.084-.252a.036.036 0 0 1 .068 0z"/></g><g><path fill="#f5f5f5" d="M9.244.87l.084.253.266.002c.034 0 .048.044.02.064l-.213.158.08.253a.036.036 0 0 1-.055.04l-.216-.155-.216.155a.036.036 0 0 1-.055-.04l.08-.253-.213-.158a.036.036 0 0 1 .02-.064l.266-.002.084-.252a.036.036 0 0 1 .068 0z"/></g><g><path fill="#f5f5f5" d="M9.244 2.188l.084.252.266.002c.034 0 .048.044.02.064l-.213.158.08.253a.036.036 0 0 1-.055.04l-.216-.154-.216.154a.036.036 0 0 1-.055-.04l.08-.253-.213-.158a.036.036 0 0 1 .02-.064l.266-.002.084-.252a.036.036 0 0 1 .068 0z"/></g><g><path fill="#f5f5f5" d="M9.244 3.505l.084.252.266.002c.034 0 .048.044.02.064l-.213.158.08.253a.036.036 0 0 1-.055.04L9.21 4.12l-.216.154a.036.036 0 0 1-.055-.04l.08-.253-.213-.158a.036.036 0 0 1 .02-.064l.266-.002.084-.252a.036.036 0 0 1 .068 0z"/></g><g><path fill="#f5f5f5" d="M9.244 4.822l.084.252.266.002c.034 0 .048.044.02.065l-.213.157.08.253a.036.036 0 0 1-.055.04l-.216-.154-.216.154a.036.036 0 0 1-.055-.04l.08-.253-.213-.157a.036.036 0 0 1 .02-.065l.266-.002.084-.252a.036.036 0 0 1 .068 0z"/></g><g><path fill="#f5f5f5" d="M9.244 6.14l.084.251.266.002c.034 0 .048.044.02.065l-.213.157.08.254a.036.036 0 0 1-.055.04l-.216-.155-.216.154a.036.036 0 0 1-.055-.04l.08-.253-.213-.157a.036.036 0 0 1 .02-.065l.266-.002.084-.252a.036.036 0 0 1 .068 0z"/></g></g></g></g></svg>