<svg xmlns="http://www.w3.org/2000/svg" width="12" height="12" viewBox="0 0 12 12"><g><g><g><path fill="#222136" d="M6 6.355c1.486 0 2.69-1.41 2.69-3.15C8.69.794 7.487.056 6 .056s-2.69.738-2.69 3.15c0 1.739 1.204 3.149 2.69 3.149z"/></g><g><path fill="#222136" d="M11.941 10.99l-1.357-3.058a.681.681 0 0 0-.307-.327L8.17 6.51a.136.136 0 0 0-.144.012A3.337 3.337 0 0 1 6 7.21c-.73 0-1.43-.239-2.026-.69a.136.136 0 0 0-.144-.011L1.723 7.605a.681.681 0 0 0-.307.327L.06 10.99a.676.676 0 0 0 .62.954h10.642a.676.676 0 0 0 .62-.954z"/></g></g></g></svg>