<svg xmlns="http://www.w3.org/2000/svg" width="112" height="36" viewBox="0 0 112 36"><g><g><path fill="#ff0a0a" d="M0 35.982V0h86.282v35.982z"/></g><g><g><path fill="#fff" d="M7.23 13.031h4.023v15.745H7.23zm2.105-7.393c1.146 0 2.316.913 2.316 2.34 0 1.614-1.146 2.526-2.316 2.526-1.357 0-2.527-.912-2.527-2.526 0-1.427 1.146-2.34 2.527-2.34z"/></g><g><path fill="#fff" d="M14.154 3.626h20.19V7.65H26.39v21.126h-4.305V7.65h-7.954V3.626z"/></g><g><path fill="#fff" d="M40.146 24.167c-.468.702-1.357 1.427-3.041 1.427-1.263 0-2.246-.655-2.246-1.848 0-1.333 1.193-1.965 2.527-1.965 1.146 0 2.058.257 2.76.772zm-7.088-7.065c1.17-.515 2.316-1.076 4.14-1.076 2.363 0 3.042 1.45 2.948 4.07-.772-.561-2.175-1.006-3.58-1.006-3.18 0-5.731 1.638-5.731 5.1 0 3.042 2.059 4.82 4.936 4.82 2.13 0 3.814-.842 4.656-2.035V28.8h3.51v-9.593c0-4.164-1.638-6.55-6.294-6.55-2.059 0-4.211.702-5.568 1.497z"/></g><g><path fill="#fff" d="M62.068 13.031H56.99l-5.638 7.533 6.246 8.212h5.17l-6.62-8.54zm-14.81-9.405v25.15h4.025V3.626z"/></g><g><path fill="#fff" d="M67.378 19.441c.422-2.058 1.708-3.439 4.141-3.439 2.317 0 3.627 1.521 3.603 3.44zm9.335 4.96c-.912.725-2.526 1.427-4.445 1.427-2.48 0-4.375-1.286-4.726-3.673h11.37c.164-.608.234-1.193.234-2.175 0-4.422-3.392-7.323-7.463-7.323-5.17 0-8.329 3.673-8.329 8.258 0 4.96 3.393 8.259 8.47 8.259 2.199 0 4.445-.632 6.012-1.965z"/></g></g><g><path fill="#ff0a0a" d="M111.549 35.982H89.838V7.206h14.505l7.206 14.388z"/></g></g></svg>