<svg xmlns="http://www.w3.org/2000/svg" width="75" height="40" viewBox="0 0 75 40"><g><g><path fill="#fff" d="M2.499 28.743h2.5v-2.5h-2.5v-2.499h69.952c.007.17.03.339.03.509v1.99h-2.499v2.5h2.5v3.749h-5.124c0-.022-.015-.042-.02-.065a6.188 6.188 0 0 0-.324-1.041c-.049-.125-.115-.23-.171-.346a6.466 6.466 0 0 0-.361-.662c-.08-.125-.172-.239-.259-.357a6.475 6.475 0 0 0-.442-.536 6.388 6.388 0 0 0-.326-.319 5.915 5.915 0 0 0-.528-.434 11.01 11.01 0 0 0-.374-.262 6.692 6.692 0 0 0-.625-.336 16.865 16.865 0 0 0-.4-.186 6.206 6.206 0 0 0-.75-.23c-.124-.033-.241-.076-.368-.1a5.923 5.923 0 0 0-2.374 0c-.125.024-.25.067-.369.1a6.228 6.228 0 0 0-.75.23c-.137.055-.266.125-.398.186-.214.1-.423.213-.625.336-.125.083-.25.17-.375.262-.184.134-.36.28-.527.434a6.394 6.394 0 0 0-.327.32c-.156.17-.304.35-.442.535-.088.118-.179.232-.258.357a6.365 6.365 0 0 0-.361.662c-.057.116-.126.226-.172.346a6.238 6.238 0 0 0-.324 1.04c0 .024-.014.044-.02.066h-25.22c0-.022-.016-.042-.021-.065a6.285 6.285 0 0 0-.323-1.041c-.05-.125-.115-.23-.172-.346a6.464 6.464 0 0 0-.36-.662c-.08-.125-.172-.239-.26-.357a6.585 6.585 0 0 0-.442-.536 6.384 6.384 0 0 0-.326-.319 5.914 5.914 0 0 0-.527-.434 10.53 10.53 0 0 0-.375-.262 6.62 6.62 0 0 0-.625-.336 16.884 16.884 0 0 0-.399-.186 6.143 6.143 0 0 0-.743-.23c-.126-.033-.243-.076-.375-.1a5.817 5.817 0 0 0-2.326 0c-.065.012-.125.02-.194.034a6.237 6.237 0 0 0-1.015.316l-.186.082a6.282 6.282 0 0 0-.944.513l-.05.039a6.28 6.28 0 0 0-.805.664l-.125.115c-.19.192-.367.397-.53.612a6.344 6.344 0 0 0-.545-.625 2.974 2.974 0 0 0-.125-.115 6.33 6.33 0 0 0-.805-.664l-.05-.038a6.31 6.31 0 0 0-.944-.514l-.185-.081a6.276 6.276 0 0 0-1.016-.317c-.064-.013-.125-.022-.194-.035a5.813 5.813 0 0 0-2.325 0c-.125.026-.25.068-.37.1-.254.061-.505.139-.75.232-.136.055-.266.125-.398.186a6.52 6.52 0 0 0-.619.336c-.124.082-.25.17-.374.26-.184.136-.36.281-.528.436a6.462 6.462 0 0 0-.326.319c-.157.17-.304.35-.442.536-.087.117-.179.231-.259.356a6.328 6.328 0 0 0-.36.662c-.057.117-.126.227-.172.347a6.155 6.155 0 0 0-.324 1.04c0 .023-.015.043-.02.066H2.499zm0-16.246h7.498v8.748H2.5zm17.496 0v8.748h-7.498v-8.748zm9.997 0v8.748h-7.498v-8.748zm9.998 0v8.748h-7.498v-8.748zm9.997 0v8.748H42.49v-8.748zm9.998 0v8.748h-7.499v-8.748zM2.499 7.498h64.41a2.52 2.52 0 0 1 2.461 2.054l.112.446H2.5zM9.519 2.5h15.952L26.72 5H8.27zm62.588 18.573c.013.058.017.115.03.173h-9.653v-8.748h7.586zM61.235 37.49a3.749 3.749 0 1 1 0-7.498 3.749 3.749 0 0 1 0 7.498zm-37.492 0a3.749 3.749 0 1 1 0-7.497 3.749 3.749 0 0 1 0 7.497zm-9.996 0a3.75 3.75 0 1 1 0-7.498 3.75 3.75 0 0 1 0 7.498zm-6.124-2.499a6.227 6.227 0 0 0 11.122 2.46 6.227 6.227 0 0 0 11.122-2.46h25.244a6.248 6.248 0 0 0 12.247 0h6.373c.69 0 1.25-.56 1.25-1.25v-9.488c0-1.266-.148-2.527-.441-3.758L71.81 9.019A5.012 5.012 0 0 0 66.91 5H29.515L27.368.691A1.25 1.25 0 0 0 26.243 0H8.747A1.25 1.25 0 0 0 7.63.691L5.476 4.999H1.25c-.69 0-1.25.56-1.25 1.25V33.74c0 .69.56 1.25 1.25 1.25z"/></g></g></svg>