<svg xmlns="http://www.w3.org/2000/svg" width="15" height="13" viewBox="0 0 15 13"><g><g clip-path="url(#clip-0403310f-7bd2-4ca9-b17c-64e51ec99131)"><g><g><path fill="#010002" d="M7.582 2.581c2.528.025 4.111-.132 4.325 2.67h3.082C14.99.91 11.204.324 7.502.324S.015.91.015 5.25h3.058c.237-2.855 2.003-2.693 4.51-2.669z"/></g><g><path fill="#010002" d="M1.544 6.645c.75 0 1.375.045 1.514-.693.019-.1.03-.214.03-.346H0c0 1.099.691 1.04 1.544 1.04z"/></g><g><path fill="#010002" d="M11.927 5.606h-.029c0 .133.011.247.033.346.146.68.77.638 1.518.638.857 0 1.551.057 1.551-.984z"/></g><g><path fill="#010002" d="M9.096 7.059a.425.425 0 1 1 0-.85.425.425 0 0 1 0 .85zm0 1.458a.425.425 0 1 1 0-.85.425.425 0 0 1 0 .85zm0 1.459a.425.425 0 1 1 0-.85.425.425 0 0 1 0 .85zm-1.75-2.917a.425.425 0 1 1 0-.85.425.425 0 0 1 0 .85zm0 1.458a.425.425 0 1 1 0-.85.425.425 0 0 1 0 .85zm0 1.459a.425.425 0 1 1 0-.85.425.425 0 0 1 0 .85zM5.595 7.059a.425.425 0 1 1 0-.85.425.425 0 0 1 0 .85zm0 1.458a.425.425 0 1 1 0-.85.425.425 0 0 1 0 .85zm0 1.459a.425.425 0 1 1 0-.85.425.425 0 0 1 0 .85zm4.826-5.118v-.436c0-.196-.225-.208-.502-.208h-.454c-.278 0-.503.012-.503.208v.667H5.753v-.667c0-.196-.225-.208-.502-.208h-.454c-.278 0-.503.012-.503.208v.817c-.73.76-3.123 3.994-3.21 4.385l.001 2.613c0 .241.196.438.438.438h11.67a.438.438 0 0 0 .438-.438V9.611c-.087-.38-2.478-3.613-3.21-4.372z"/></g></g></g></g></svg>