<svg xmlns="http://www.w3.org/2000/svg" width="18" height="18" viewBox="0 0 18 18"><g><g clip-path="url(#clip-8e0da816-3867-4fb7-ba12-539d9503ec38)"><g><g><path d="M4.122 3.57c2.657-2.404 6.634-2.441 9.329-.247l-2.136.081a.494.494 0 0 0-.478.515.498.498 0 0 0 .496.478h.019l3.278-.122a.495.495 0 0 0 .478-.496v-.037-.022L14.987.478a.497.497 0 0 0-.992.037l.077 2.033A8.075 8.075 0 0 0 9.337.736a8.093 8.093 0 0 0-5.88 2.098A8.164 8.164 0 0 0 1 10.814a.494.494 0 0 0 .599.364.497.497 0 0 0 .364-.599 7.172 7.172 0 0 1 2.158-7.01z"/></g><g><path d="M16.998 7.186a.497.497 0 0 0-.963.236 7.164 7.164 0 0 1-6.962 8.858 7.159 7.159 0 0 1-4.584-1.65l2.161-.195a.496.496 0 1 0-.091-.989l-3.268.294a.496.496 0 0 0-.449.54l.294 3.268A.495.495 0 0 0 3.63 18c.015 0 .03 0 .044-.003a.496.496 0 0 0 .449-.54l-.177-1.99a8.107 8.107 0 0 0 5.131 1.81 8.113 8.113 0 0 0 5.466-2.11 8.162 8.162 0 0 0 2.456-7.98z"/></g></g></g></g></svg>