<svg xmlns="http://www.w3.org/2000/svg" width="15" height="15" viewBox="0 0 15 15"><g><g><path fill="#fff" d="M11.814 3.056L5.576 9.058a.594.594 0 0 0-.178.366l-.316-1.198a.594.594 0 0 0-.363-.403L2.227 6.87zM5.504 9.83zm0 0c.041.056.092.106.15.146l1.27.86-.97.698zm2.798.507a.322.322 0 0 0-.016-.011l-1.358-.921 6.546-6.3-1.813 9.51-3.36-2.278zm3.773 3.87a.593.593 0 0 0 .584-.482l2.329-12.222a.578.578 0 0 0 .01-.162.591.591 0 0 0-.628-.55.594.594 0 0 0-.196.047l-13.8 5.49a.594.594 0 0 0 .008 1.107L4.01 8.824l1.016 3.849a.594.594 0 0 0 .92.33l2.023-1.455 3.772 2.558c.1.068.216.103.333.103z"/></g></g></svg>